<?xml version="1.0" standalone="no"?><!DOCTYPE svg PUBLIC "-//W3C//DTD SVG 1.1//EN" "http://www.w3.org/Graphics/SVG/1.1/DTD/svg11.dtd"><svg t="1563290775068" class="icon" viewBox="0 0 1024 1024" version="1.1" xmlns="http://www.w3.org/2000/svg" p-id="1205" width="48" height="48" xmlns:xlink="http://www.w3.org/1999/xlink"><defs><style type="text/css"></style></defs><path d="M658.359392 961.641767 384.28627 961.641767c-32.556487 0-60.125379-17.573237-75.592652-48.226375-0.549515-1.083681-1.38351-2.901073-1.766226-4.069689l-73.225745-220.322941c-11.094686-20.37505-13.916964-43.801599-7.910157-66.277496 6.307659-23.563672 21.526269-43.221384 42.838667-55.369052 13.883195-7.91118 29.652344-12.099572 45.588291-12.099572 24.028253 0 46.89096 9.426697 63.760163 25.600051l-0.068562-197.309808c0-51.849902 42.856064-94.019327 95.534843-94.019327 52.683896 0 95.535867 42.169425 95.535867 94.019327l0 160.962995C731.580021 558.781466 733.24801 559.065945 734.450395 559.263443c50.461275 8.309246 84.419691 43.736107 84.419691 88.174202 0 3.15383 0 10.565636-49.077765 244.251933C755.126296 944.385754 727.108173 961.641767 658.359392 961.641767L658.359392 961.641767zM353.817328 891.690602c4.886287 9.276271 14.080693 19.890003 30.468942 19.890003l274.073122 0c53.946656 0 56.365752-8.645914 62.84021-31.754215 17.054421-81.518618 45.056172-216.635969 47.609321-233.587036-0.75213-22.644743-22.310122-34.259268-42.499953-37.579897-4.322445-0.416486-112.890117-9.981329-184.526667-16.254196-12.916171-1.134847-22.845311-11.946077-22.845311-24.930809L518.936993 383.584282c0-24.230867-20.409842-43.956118-45.473681-43.956118s-45.473681 19.726274-45.473681 43.956118l0.103354 315.019697c0 12.146645-8.714476 22.542412-20.675902 24.659633-11.899004 2.12336-23.696702-4.652973-27.868721-16.064884l-30.271444-83.053578c-11.480472-17.590634-37.111223-23.928992-55.831586-13.251815-9.612938 5.474688-16.45681 14.286378-19.276019 24.814152-2.788509 10.380418-1.302669 21.209044 4.13825 30.502711 0.884137 1.503237 1.602498 3.106758 2.153036 4.756327L353.817328 891.690602 353.817328 891.690602zM353.817328 891.690602" p-id="1206" fill="#ffffff"></path><path d="M308.126706 329.8648l-100.405781-2.142803c-15.190981-0.316202-27.430746 12.0525-27.491121 28.109198-0.039909 16.023952 12.148691 29.569456 27.284413 29.890774l100.406804 2.146896c15.517415 0.324388 28.109198-12.688997 28.149107-28.713972C336.162226 343.122755 323.647191 330.190211 308.126706 329.8648L308.126706 329.8648zM760.529353 368.170221c0.037862-16.021905-12.150738-28.943193-27.996634-29.27986l-99.718119-2.100848c-15.84385-0.334621-28.112268 12.063757-28.149107 28.090778-0.039909 16.024975 12.149714 29.569456 27.994588 29.906124l99.721189 2.098801C748.226143 397.22086 760.488421 384.195196 760.529353 368.170221L760.529353 368.170221zM498.68167 91.315752c0.027629-15.696494-12.129248-28.593222-28.004821-28.952402-14.862499-0.303922-27.432793 12.054547-27.460422 27.752064l-0.26913 104.052844c-0.051165 15.72617 12.456706 28.601408 27.317159 28.907377 15.84692 0.333598 28.118408-12.011568 28.17162-27.735691L498.68167 91.315752 498.68167 91.315752zM565.256948 266.072915c10.879792 11.487635 28.665877 11.862165 39.642882 0.835018l70.850651-71.877027c10.952446-10.999518 11.009751-29.125341 0.112564-40.96397-10.878768-11.487635-28.664853-11.862165-39.619346-0.864694l-70.900793 71.885214C554.425252 236.160651 554.389436 254.256798 565.256948 266.072915L565.256948 266.072915zM376.006699 262.061554c10.607592-11.358699 10.642384-29.454846 0.113587-40.959877l-70.481238-74.878384c-11.534707-11.508102-28.993335-11.874445-39.642882-0.833995-11.612479 11.359722-11.649318 29.450752-0.11154 40.960901l70.480214 74.876338C346.94071 272.674263 364.42492 273.064143 376.006699 262.061554L376.006699 262.061554zM376.006699 262.061554" p-id="1207" fill="#ffffff"></path></svg>