<?xml version="1.0" standalone="no"?><!DOCTYPE svg PUBLIC "-//W3C//DTD SVG 1.1//EN" "http://www.w3.org/Graphics/SVG/1.1/DTD/svg11.dtd"><svg class="icon" width="48px" height="48.00px" viewBox="0 0 1024 1024" version="1.1" xmlns="http://www.w3.org/2000/svg"><path fill="#666666" d="M512 640a32 32 0 0 0-32 32v96a32 32 0 1 0 64 0v-96a32 32 0 0 0-32-32zM333.312 317.888a12.8 12.8 0 0 0 9.056 3.744H480V544a32 32 0 1 0 64 0v-222.368h139.904a12.8 12.8 0 0 0 9.056-21.856l-170.752-170.752a12.8 12.8 0 0 0-18.112 0l-170.752 170.752a12.8 12.8 0 0 0-0.032 18.112zM892.384 186.496l-174.176-86.08a32.032 32.032 0 0 0-28.384 57.376L864 243.872v502.848l-352 147.52-352-147.52V243.872l174.176-86.08a32 32 0 0 0-28.32-57.376l-174.208 86.08A63.648 63.648 0 0 0 96 243.872v502.848c0 25.888 15.424 49.056 39.264 59.008l364.384 152.704a31.936 31.936 0 0 0 24.768 0l364.352-152.672A63.84 63.84 0 0 0 928 746.72V243.872a63.68 63.68 0 0 0-35.616-57.376z" /></svg>