<?xml version="1.0" standalone="no"?><!DOCTYPE svg PUBLIC "-//W3C//DTD SVG 1.1//EN" "http://www.w3.org/Graphics/SVG/1.1/DTD/svg11.dtd"><svg class="icon" width="48px" height="48.00px" viewBox="0 0 1024 1024" version="1.1" xmlns="http://www.w3.org/2000/svg"><path fill="#666666" d="M471.991 695.45c76.458-60.373 152.917-120.733 229.375-181.093 26.154-20.643 63.396 16.095 36.999 36.947-82.268 64.932-164.519 129.882-246.77 194.815-7.977 13.76-26.577 21.045-39.823 5.706-36.528-42.294-73.038-84.589-109.566-126.884-21.9-25.363 14.942-62.449 36.981-36.947l92.804 107.456zM605.847 173C620.29 173 632 184.864 632 199.5S620.29 226 605.847 226H421.153C406.71 226 395 214.136 395 199.5s11.71-26.5 26.153-26.5h184.694z m-353.595 0.316c14.444 0 26.154 11.699 26.154 26.13 0 14.43-11.71 26.129-26.154 26.129h-41.968c-68.923 0-124.96 53.576-124.96 118.349v433.45c0 64.763 56.044 118.35 124.96 118.35h604.442c68.902 0 124.944-53.59 124.944-118.35v-433.45c0-64.771-56.035-118.349-124.944-118.349h-58.758c-14.444 0-26.154-11.699-26.154-26.13 0-14.43 11.71-26.129 26.154-26.129h58.758c97.295 0 177.25 76.45 177.25 170.608v433.45c0 94.147-79.96 170.608-177.25 170.608H210.284c-97.303 0-177.268-76.458-177.268-170.607V343.924c0-94.162 79.959-170.608 177.268-170.608h41.968z m53.6-70.188c0-33.69 52.308-33.62 52.308 0V252.97c0 33.672-52.307 33.62-52.307 0V103.128z m352.597 0c0-33.69 52.306-33.62 52.306 0V252.97c0 33.672-52.306 33.62-52.306 0V103.128z" /></svg>